<mxfile host="app.diagrams.net" agent="Mozilla/5.0 (Macintosh; Intel Mac OS X 10_15_7) AppleWebKit/537.36 (KHTML, like Gecko) Chrome/129.0.0.0 Safari/537.36" version="24.7.17">
  <diagram name="第 1 页" id="eA5-4yZRzoo4qsK1BOXY">
    <mxGraphModel dx="1242" dy="785" grid="1" gridSize="10" guides="1" tooltips="1" connect="1" arrows="1" fold="1" page="1" pageScale="1" pageWidth="827" pageHeight="1169" math="0" shadow="0">
      <root>
        <mxCell id="0" />
        <mxCell id="1" parent="0" />
        <mxCell id="mvx4FYLGFjKUsa3i39km-27" value="" style="rounded=0;whiteSpace=wrap;html=1;fillColor=#f5f5f5;fontColor=#333333;strokeColor=#666666;" parent="1" vertex="1">
          <mxGeometry x="170" y="280" width="390" height="580" as="geometry" />
        </mxCell>
        <mxCell id="mvx4FYLGFjKUsa3i39km-8" value="" style="edgeStyle=orthogonalEdgeStyle;rounded=0;orthogonalLoop=1;jettySize=auto;html=1;" parent="1" source="mvx4FYLGFjKUsa3i39km-1" target="mvx4FYLGFjKUsa3i39km-7" edge="1">
          <mxGeometry relative="1" as="geometry" />
        </mxCell>
        <mxCell id="mvx4FYLGFjKUsa3i39km-1" value="提交任务" style="rounded=1;whiteSpace=wrap;html=1;fillColor=#dae8fc;strokeColor=#6c8ebf;" parent="1" vertex="1">
          <mxGeometry x="220" y="200" width="90" height="50" as="geometry" />
        </mxCell>
        <mxCell id="mvx4FYLGFjKUsa3i39km-3" value="" style="edgeStyle=orthogonalEdgeStyle;rounded=0;orthogonalLoop=1;jettySize=auto;html=1;" parent="1" source="mvx4FYLGFjKUsa3i39km-2" target="mvx4FYLGFjKUsa3i39km-1" edge="1">
          <mxGeometry relative="1" as="geometry" />
        </mxCell>
        <mxCell id="mvx4FYLGFjKUsa3i39km-2" value="Actor" style="shape=umlActor;verticalLabelPosition=bottom;verticalAlign=top;html=1;outlineConnect=0;" parent="1" vertex="1">
          <mxGeometry x="100" y="195" width="30" height="60" as="geometry" />
        </mxCell>
        <mxCell id="mvx4FYLGFjKUsa3i39km-6" value="创建新的线程执行该任务" style="rounded=1;whiteSpace=wrap;html=1;fillColor=#d5e8d4;strokeColor=#82b366;" parent="1" vertex="1">
          <mxGeometry x="410" y="320" width="120" height="60" as="geometry" />
        </mxCell>
        <mxCell id="mvx4FYLGFjKUsa3i39km-9" value="" style="edgeStyle=orthogonalEdgeStyle;rounded=0;orthogonalLoop=1;jettySize=auto;html=1;" parent="1" source="mvx4FYLGFjKUsa3i39km-7" target="mvx4FYLGFjKUsa3i39km-6" edge="1">
          <mxGeometry relative="1" as="geometry" />
        </mxCell>
        <mxCell id="mvx4FYLGFjKUsa3i39km-11" value="" style="edgeStyle=orthogonalEdgeStyle;rounded=0;orthogonalLoop=1;jettySize=auto;html=1;" parent="1" source="mvx4FYLGFjKUsa3i39km-7" target="mvx4FYLGFjKUsa3i39km-10" edge="1">
          <mxGeometry relative="1" as="geometry" />
        </mxCell>
        <mxCell id="mvx4FYLGFjKUsa3i39km-7" value="当前线程池中的线程是否小于核心线程数" style="rhombus;whiteSpace=wrap;html=1;fillColor=#ffe6cc;strokeColor=#d79b00;" parent="1" vertex="1">
          <mxGeometry x="201.25" y="295" width="127.5" height="110" as="geometry" />
        </mxCell>
        <mxCell id="mvx4FYLGFjKUsa3i39km-13" value="" style="edgeStyle=orthogonalEdgeStyle;rounded=0;orthogonalLoop=1;jettySize=auto;html=1;" parent="1" source="mvx4FYLGFjKUsa3i39km-10" target="mvx4FYLGFjKUsa3i39km-12" edge="1">
          <mxGeometry relative="1" as="geometry" />
        </mxCell>
        <mxCell id="mvx4FYLGFjKUsa3i39km-15" value="" style="edgeStyle=orthogonalEdgeStyle;rounded=0;orthogonalLoop=1;jettySize=auto;html=1;" parent="1" source="mvx4FYLGFjKUsa3i39km-10" target="mvx4FYLGFjKUsa3i39km-14" edge="1">
          <mxGeometry relative="1" as="geometry" />
        </mxCell>
        <mxCell id="mvx4FYLGFjKUsa3i39km-10" value="阻塞队列是否满" style="rhombus;whiteSpace=wrap;html=1;fillColor=#ffe6cc;strokeColor=#d79b00;" parent="1" vertex="1">
          <mxGeometry x="201.25" y="450" width="127.5" height="110" as="geometry" />
        </mxCell>
        <mxCell id="mvx4FYLGFjKUsa3i39km-12" value="加入到阻塞队列中" style="rounded=1;whiteSpace=wrap;html=1;fillColor=#d5e8d4;strokeColor=#82b366;" parent="1" vertex="1">
          <mxGeometry x="410" y="475" width="120" height="60" as="geometry" />
        </mxCell>
        <mxCell id="mvx4FYLGFjKUsa3i39km-20" value="" style="edgeStyle=orthogonalEdgeStyle;rounded=0;orthogonalLoop=1;jettySize=auto;html=1;" parent="1" source="mvx4FYLGFjKUsa3i39km-14" target="mvx4FYLGFjKUsa3i39km-16" edge="1">
          <mxGeometry relative="1" as="geometry" />
        </mxCell>
        <mxCell id="mvx4FYLGFjKUsa3i39km-22" value="" style="edgeStyle=orthogonalEdgeStyle;rounded=0;orthogonalLoop=1;jettySize=auto;html=1;" parent="1" source="mvx4FYLGFjKUsa3i39km-14" target="mvx4FYLGFjKUsa3i39km-21" edge="1">
          <mxGeometry relative="1" as="geometry" />
        </mxCell>
        <mxCell id="mvx4FYLGFjKUsa3i39km-14" value="线程池中的线程是否&lt;div&gt;达到最大线程数&lt;/div&gt;" style="rhombus;whiteSpace=wrap;html=1;fillColor=#ffe6cc;strokeColor=#d79b00;" parent="1" vertex="1">
          <mxGeometry x="201.25" y="600" width="127.5" height="110" as="geometry" />
        </mxCell>
        <mxCell id="mvx4FYLGFjKUsa3i39km-16" value="创建线程执行该任务" style="rounded=1;whiteSpace=wrap;html=1;fillColor=#d5e8d4;strokeColor=#82b366;" parent="1" vertex="1">
          <mxGeometry x="410" y="625" width="120" height="60" as="geometry" />
        </mxCell>
        <mxCell id="mvx4FYLGFjKUsa3i39km-17" value="是" style="text;html=1;align=center;verticalAlign=middle;whiteSpace=wrap;rounded=0;" parent="1" vertex="1">
          <mxGeometry x="310" y="320" width="60" height="30" as="geometry" />
        </mxCell>
        <mxCell id="mvx4FYLGFjKUsa3i39km-18" value="否" style="text;html=1;align=center;verticalAlign=middle;whiteSpace=wrap;rounded=0;" parent="1" vertex="1">
          <mxGeometry x="220" y="405" width="60" height="30" as="geometry" />
        </mxCell>
        <mxCell id="mvx4FYLGFjKUsa3i39km-19" value="否" style="text;html=1;align=center;verticalAlign=middle;whiteSpace=wrap;rounded=0;" parent="1" vertex="1">
          <mxGeometry x="310" y="470" width="60" height="30" as="geometry" />
        </mxCell>
        <mxCell id="mvx4FYLGFjKUsa3i39km-21" value="执行拒绝策略" style="rounded=1;whiteSpace=wrap;html=1;fillColor=#d5e8d4;strokeColor=#82b366;" parent="1" vertex="1">
          <mxGeometry x="205" y="770" width="120" height="60" as="geometry" />
        </mxCell>
        <mxCell id="mvx4FYLGFjKUsa3i39km-24" value="是" style="text;html=1;align=center;verticalAlign=middle;whiteSpace=wrap;rounded=0;" parent="1" vertex="1">
          <mxGeometry x="220" y="560" width="60" height="30" as="geometry" />
        </mxCell>
        <mxCell id="mvx4FYLGFjKUsa3i39km-25" value="是" style="text;html=1;align=center;verticalAlign=middle;whiteSpace=wrap;rounded=0;" parent="1" vertex="1">
          <mxGeometry x="310" y="625" width="60" height="30" as="geometry" />
        </mxCell>
        <mxCell id="mvx4FYLGFjKUsa3i39km-26" value="否" style="text;html=1;align=center;verticalAlign=middle;whiteSpace=wrap;rounded=0;" parent="1" vertex="1">
          <mxGeometry x="220" y="710" width="60" height="30" as="geometry" />
        </mxCell>
        <mxCell id="mvx4FYLGFjKUsa3i39km-28" value="线程池" style="text;html=1;align=center;verticalAlign=middle;whiteSpace=wrap;rounded=0;" parent="1" vertex="1">
          <mxGeometry x="328.75" y="280" width="116" height="30" as="geometry" />
        </mxCell>
      </root>
    </mxGraphModel>
  </diagram>
</mxfile>
